<svg width="450" height="250" viewBox="0 0 450 250" fill="none" xmlns="http://www.w3.org/2000/svg">
<rect width="10" height="10" fill="#B8EE46"/>
<rect y="80" width="10" height="10" fill="#B8EE46"/>
<rect y="160" width="10" height="10" fill="#333333"/>
<rect y="240" width="10" height="10" fill="#333333"/>
<rect x="110" width="10" height="10" fill="#B8EE46"/>
<rect x="110" y="80" width="10" height="10" fill="#B8EE46"/>
<rect x="110" y="160" width="10" height="10" fill="#333333"/>
<rect x="110" y="240" width="10" height="10" fill="#333333"/>
<rect x="220" width="10" height="10" fill="#B8EE46"/>
<rect x="220" y="80" width="10" height="10" fill="#B8EE46"/>
<rect x="220" y="160" width="10" height="10" fill="#333333"/>
<rect x="220" y="240" width="10" height="10" fill="#333333"/>
<rect x="330" width="10" height="10" fill="#B8EE46"/>
<rect x="440" width="10" height="10" fill="#B8EE46"/>
<rect x="330" y="80" width="10" height="10" fill="#B8EE46"/>
<rect x="440" y="80" width="10" height="10" fill="#B8EE46"/>
<rect x="330" y="160" width="10" height="10" fill="#333333"/>
<rect x="440" y="160" width="10" height="10" fill="#333333"/>
<rect x="330" y="240" width="10" height="10" fill="#333333"/>
<rect x="440" y="240" width="10" height="10" fill="#333333"/>
</svg>
