<svg width="94" height="90" viewBox="0 0 94 90" fill="none" xmlns="http://www.w3.org/2000/svg">
<path d="M87 27.0891V2H2V88H87V65.6985" stroke="#B8EE46" stroke-width="3" stroke-linecap="square"/>
<path d="M29.041 38.7V52H24.633V42.177H20.586V52H16.178V38.7H29.041ZM38.1568 41.417C39.0688 41.417 39.9048 41.6387 40.6648 42.082C41.4375 42.5127 42.0455 43.1397 42.4888 43.963C42.9448 44.7863 43.1728 45.7363 43.1728 46.813C43.1728 47.8897 42.9448 48.8397 42.4888 49.663C42.0455 50.4737 41.4375 51.1007 40.6648 51.544C39.9048 51.9747 39.0688 52.19 38.1568 52.19C37.0042 52.19 36.1238 51.8923 35.5158 51.297V55.686H31.2218V41.607H35.3068V42.462C35.9275 41.7653 36.8775 41.417 38.1568 41.417ZM37.1308 48.846C37.6248 48.846 38.0302 48.6687 38.3468 48.314C38.6635 47.9593 38.8218 47.459 38.8218 46.813C38.8218 46.167 38.6635 45.6667 38.3468 45.312C38.0302 44.9447 37.6248 44.761 37.1308 44.761C36.6368 44.761 36.2315 44.9447 35.9148 45.312C35.5982 45.6667 35.4398 46.167 35.4398 46.813C35.4398 47.459 35.5982 47.9593 35.9148 48.314C36.2315 48.6687 36.6368 48.846 37.1308 48.846ZM49.9207 52.19C48.768 52.19 47.7293 51.962 46.8047 51.506C45.8927 51.0373 45.177 50.3977 44.6577 49.587C44.1383 48.7637 43.8787 47.8327 43.8787 46.794C43.8787 45.7553 44.1383 44.8307 44.6577 44.02C45.177 43.1967 45.8927 42.557 46.8047 42.101C47.7293 41.645 48.768 41.417 49.9207 41.417C51.086 41.417 52.1247 41.645 53.0367 42.101C53.9613 42.557 54.677 43.1967 55.1837 44.02C55.703 44.8307 55.9627 45.7553 55.9627 46.794C55.9627 47.8327 55.703 48.7637 55.1837 49.587C54.677 50.3977 53.9613 51.0373 53.0367 51.506C52.1247 51.962 51.086 52.19 49.9207 52.19ZM49.9207 48.846C50.4147 48.846 50.82 48.6687 51.1367 48.314C51.4533 47.9467 51.6117 47.44 51.6117 46.794C51.6117 46.148 51.4533 45.6477 51.1367 45.293C50.82 44.9383 50.4147 44.761 49.9207 44.761C49.4267 44.761 49.0213 44.9383 48.7047 45.293C48.388 45.6477 48.2297 46.148 48.2297 46.794C48.2297 47.44 48.388 47.9467 48.7047 48.314C49.0213 48.6687 49.4267 48.846 49.9207 48.846ZM68.2162 46.794C68.2162 46.8573 68.1972 47.193 68.1592 47.801H60.9392C61.0912 48.1937 61.3445 48.4977 61.6992 48.713C62.0538 48.9157 62.4972 49.017 63.0292 49.017C63.4852 49.017 63.8652 48.96 64.1692 48.846C64.4858 48.732 64.8278 48.5357 65.1952 48.257L67.4372 50.518C66.4238 51.6327 64.9102 52.19 62.8962 52.19C61.6422 52.19 60.5402 51.962 59.5902 51.506C58.6402 51.0373 57.9055 50.3913 57.3862 49.568C56.8668 48.7447 56.6072 47.82 56.6072 46.794C56.6072 45.7553 56.8605 44.8307 57.3672 44.02C57.8865 43.1967 58.5895 42.557 59.4762 42.101C60.3755 41.645 61.3825 41.417 62.4972 41.417C63.5485 41.417 64.5048 41.626 65.3662 42.044C66.2402 42.462 66.9305 43.0763 67.4372 43.887C67.9565 44.6977 68.2162 45.6667 68.2162 46.794ZM62.5352 44.343C62.0918 44.343 61.7245 44.4633 61.4332 44.704C61.1418 44.9447 60.9518 45.2867 60.8632 45.73H64.2072C64.1185 45.2993 63.9285 44.9637 63.6372 44.723C63.3458 44.4697 62.9785 44.343 62.5352 44.343ZM74.8709 48.542H74.0539V52H69.7599V41.607H74.0539V45.255H74.9849L77.2649 41.607H81.7869L78.4429 46.585L81.9959 52H76.9419L74.8709 48.542ZM92.7943 44.951H89.6213V52H85.3463V44.951H82.1733V41.607H92.7943V44.951Z" fill="white"/>
</svg>
